STARTFONT 2.1
FONT -Raccoon-Fixed4x6-Medium-R-Normal--12-120-75-75-P-80-ISO10646-1
SIZE 12 75 75
FONTBOUNDINGBOX 8 12 0 -2
COMMENT "Generated by fontforge, http://fontforge.sourceforge.net"
COMMENT """""MIT"""""
STARTPROPERTIES 32
FOUNDRY "Raccoon"
FAMILY_NAME "Fixed4x6"
WEIGHT_NAME "Medium"
SLANT "R"
SETWIDTH_NAME "Normal"
ADD_STYLE_NAME ""
PIXEL_SIZE 12
POINT_SIZE 120
RESOLUTION_X 75
RESOLUTION_Y 75
SPACING "P"
AVERAGE_WIDTH 80
CHARSET_REGISTRY "ISO10646"
CHARSET_ENCODING "1"
FONTNAME_REGISTRY ""
CHARSET_COLLECTIONS "ISO10646-1"
FONT_NAME "Fixed4x6"
FACE_NAME "Fixed4x6"
COPYRIGHT """""MIT"""""
FONT_VERSION "001.000"
FONT_ASCENT 10
FONT_DESCENT 2
UNDERLINE_POSITION -1
UNDERLINE_THICKNESS 1
X_HEIGHT 7
CAP_HEIGHT 9
RAW_ASCENT 833
RAW_DESCENT 167
NORM_SPACE 8
FIGURE_WIDTH 8
AVG_LOWERCASE_WIDTH 80
AVG_UPPERCASE_WIDTH 80
ENDPROPERTIES
CHARS 203
STARTCHAR space
ENCODING 32
SWIDTH 1000 0
DWIDTH 8 0
BBX 1 1 7 8
BITMAP
00
ENDCHAR
STARTCHAR exclam
ENCODING 33
SWIDTH 1000 0
DWIDTH 8 0
BBX 2 10 2 0
BITMAP
C0
C0
C0
C0
C0
C0
00
00
C0
C0
ENDCHAR
STARTCHAR quotedbl
ENCODING 34
SWIDTH 1000 0
DWIDTH 8 0
BBX 6 4 0 6
BITMAP
CC
CC
CC
CC
ENDCHAR
STARTCHAR numbersign
ENCODING 35
SWIDTH 1000 0
DWIDTH 8 0
BBX 6 10 0 0
BITMAP
CC
CC
FC
FC
CC
CC
FC
FC
CC
CC
ENDCHAR
STARTCHAR dollar
ENCODING 36
SWIDTH 1000 0
DWIDTH 8 0
BBX 6 10 0 0
BITMAP
3C
3C
F0
F0
3C
3C
F0
F0
30
30
ENDCHAR
STARTCHAR percent
ENCODING 37
SWIDTH 1000 0
DWIDTH 8 0
BBX 6 10 0 0
BITMAP
C0
C0
0C
0C
30
30
C0
C0
0C
0C
ENDCHAR
STARTCHAR ampersand
ENCODING 38
SWIDTH 1000 0
DWIDTH 8 0
BBX 6 10 0 0
BITMAP
F0
F0
F0
F0
FC
FC
CC
CC
3C
3C
ENDCHAR
STARTCHAR quotesingle
ENCODING 39
SWIDTH 1000 0
DWIDTH 8 0
BBX 2 4 2 6
BITMAP
C0
C0
C0
C0
ENDCHAR
STARTCHAR parenleft
ENCODING 40
SWIDTH 1000 0
DWIDTH 8 0
BBX 4 10 2 0
BITMAP
30
30
C0
C0
C0
C0
C0
C0
30
30
ENDCHAR
STARTCHAR parenright
ENCODING 41
SWIDTH 1000 0
DWIDTH 8 0
BBX 4 10 0 0
BITMAP
C0
C0
30
30
30
30
30
30
C0
C0
ENDCHAR
STARTCHAR asterisk
ENCODING 42
SWIDTH 1000 0
DWIDTH 8 0
BBX 6 6 0 4
BITMAP
CC
CC
30
30
CC
CC
ENDCHAR
STARTCHAR plus
ENCODING 43
SWIDTH 1000 0
DWIDTH 8 0
BBX 6 6 0 2
BITMAP
30
30
FC
FC
30
30
ENDCHAR
STARTCHAR comma
ENCODING 44
SWIDTH 1000 0
DWIDTH 8 0
BBX 4 4 0 0
BITMAP
30
30
C0
C0
ENDCHAR
STARTCHAR hyphen
ENCODING 45
SWIDTH 1000 0
DWIDTH 8 0
BBX 6 2 0 4
BITMAP
FC
FC
ENDCHAR
STARTCHAR period
ENCODING 46
SWIDTH 1000 0
DWIDTH 8 0
BBX 2 2 2 0
BITMAP
C0
C0
ENDCHAR
STARTCHAR slash
ENCODING 47
SWIDTH 1000 0
DWIDTH 8 0
BBX 6 10 0 0
BITMAP
0C
0C
0C
0C
30
30
C0
C0
C0
C0
ENDCHAR
STARTCHAR zero
ENCODING 48
SWIDTH 1000 0
DWIDTH 8 0
BBX 6 10 0 0
BITMAP
FC
FC
CC
CC
CC
CC
CC
CC
FC
FC
ENDCHAR
STARTCHAR one
ENCODING 49
SWIDTH 1000 0
DWIDTH 8 0
BBX 6 10 0 0
BITMAP
30
30
F0
F0
30
30
30
30
FC
FC
ENDCHAR
STARTCHAR two
ENCODING 50
SWIDTH 1000 0
DWIDTH 8 0
BBX 6 10 0 0
BITMAP
FC
FC
0C
0C
FC
FC
C0
C0
FC
FC
ENDCHAR
STARTCHAR three
ENCODING 51
SWIDTH 1000 0
DWIDTH 8 0
BBX 6 10 0 0
BITMAP
FC
FC
0C
0C
FC
FC
0C
0C
FC
FC
ENDCHAR
STARTCHAR four
ENCODING 52
SWIDTH 1000 0
DWIDTH 8 0
BBX 6 10 0 0
BITMAP
CC
CC
CC
CC
FC
FC
0C
0C
0C
0C
ENDCHAR
STARTCHAR five
ENCODING 53
SWIDTH 1000 0
DWIDTH 8 0
BBX 6 10 0 0
BITMAP
FC
FC
C0
C0
FC
FC
0C
0C
FC
FC
ENDCHAR
STARTCHAR six
ENCODING 54
SWIDTH 1000 0
DWIDTH 8 0
BBX 6 10 0 0
BITMAP
FC
FC
C0
C0
FC
FC
CC
CC
FC
FC
ENDCHAR
STARTCHAR seven
ENCODING 55
SWIDTH 1000 0
DWIDTH 8 0
BBX 6 10 0 0
BITMAP
FC
FC
0C
0C
30
30
C0
C0
C0
C0
ENDCHAR
STARTCHAR eight
ENCODING 56
SWIDTH 1000 0
DWIDTH 8 0
BBX 6 10 0 0
BITMAP
FC
FC
CC
CC
FC
FC
CC
CC
FC
FC
ENDCHAR
STARTCHAR nine
ENCODING 57
SWIDTH 1000 0
DWIDTH 8 0
BBX 6 10 0 0
BITMAP
FC
FC
CC
CC
FC
FC
0C
0C
FC
FC
ENDCHAR
STARTCHAR colon
ENCODING 58
SWIDTH 1000 0
DWIDTH 8 0
BBX 2 6 2 2
BITMAP
C0
C0
00
00
C0
C0
ENDCHAR
STARTCHAR semicolon
ENCODING 59
SWIDTH 1000 0
DWIDTH 8 0
BBX 4 8 0 0
BITMAP
30
30
00
00
30
30
C0
C0
ENDCHAR
STARTCHAR less
ENCODING 60
SWIDTH 1000 0
DWIDTH 8 0
BBX 6 10 0 0
BITMAP
0C
0C
30
30
C0
C0
30
30
0C
0C
ENDCHAR
STARTCHAR equal
ENCODING 61
SWIDTH 1000 0
DWIDTH 8 0
BBX 6 6 0 2
BITMAP
FC
FC
00
00
FC
FC
ENDCHAR
STARTCHAR greater
ENCODING 62
SWIDTH 1000 0
DWIDTH 8 0
BBX 6 10 0 0
BITMAP
C0
C0
30
30
0C
0C
30
30
C0
C0
ENDCHAR
STARTCHAR question
ENCODING 63
SWIDTH 1000 0
DWIDTH 8 0
BBX 6 10 0 0
BITMAP
FC
FC
0C
0C
30
30
00
00
30
30
ENDCHAR
STARTCHAR at
ENCODING 64
SWIDTH 1000 0
DWIDTH 8 0
BBX 6 10 0 0
BITMAP
30
30
CC
CC
FC
FC
C0
C0
3C
3C
ENDCHAR
STARTCHAR A
ENCODING 65
SWIDTH 1000 0
DWIDTH 8 0
BBX 6 10 0 0
BITMAP
FC
FC
CC
CC
FC
FC
CC
CC
CC
CC
ENDCHAR
STARTCHAR B
ENCODING 66
SWIDTH 1000 0
DWIDTH 8 0
BBX 6 10 0 0
BITMAP
F0
F0
CC
CC
F0
F0
CC
CC
F0
F0
ENDCHAR
STARTCHAR C
ENCODING 67
SWIDTH 1000 0
DWIDTH 8 0
BBX 6 10 0 0
BITMAP
FC
FC
C0
C0
C0
C0
C0
C0
FC
FC
ENDCHAR
STARTCHAR D
ENCODING 68
SWIDTH 1000 0
DWIDTH 8 0
BBX 6 10 0 0
BITMAP
F0
F0
CC
CC
CC
CC
CC
CC
F0
F0
ENDCHAR
STARTCHAR E
ENCODING 69
SWIDTH 1000 0
DWIDTH 8 0
BBX 6 10 0 0
BITMAP
FC
FC
C0
C0
FC
FC
C0
C0
FC
FC
ENDCHAR
STARTCHAR F
ENCODING 70
SWIDTH 1000 0
DWIDTH 8 0
BBX 6 10 0 0
BITMAP
FC
FC
C0
C0
FC
FC
C0
C0
C0
C0
ENDCHAR
STARTCHAR G
ENCODING 71
SWIDTH 1000 0
DWIDTH 8 0
BBX 6 10 0 0
BITMAP
3C
3C
C0
C0
FC
FC
CC
CC
3C
3C
ENDCHAR
STARTCHAR H
ENCODING 72
SWIDTH 1000 0
DWIDTH 8 0
BBX 6 10 0 0
BITMAP
CC
CC
CC
CC
FC
FC
CC
CC
CC
CC
ENDCHAR
STARTCHAR I
ENCODING 73
SWIDTH 1000 0
DWIDTH 8 0
BBX 6 10 0 0
BITMAP
FC
FC
30
30
30
30
30
30
FC
FC
ENDCHAR
STARTCHAR J
ENCODING 74
SWIDTH 1000 0
DWIDTH 8 0
BBX 6 10 0 0
BITMAP
0C
0C
0C
0C
0C
0C
CC
CC
FC
FC
ENDCHAR
STARTCHAR K
ENCODING 75
SWIDTH 1000 0
DWIDTH 8 0
BBX 6 10 0 0
BITMAP
CC
CC
CC
CC
F0
F0
CC
CC
CC
CC
ENDCHAR
STARTCHAR L
ENCODING 76
SWIDTH 1000 0
DWIDTH 8 0
BBX 6 10 0 0
BITMAP
C0
C0
C0
C0
C0
C0
C0
C0
FC
FC
ENDCHAR
STARTCHAR M
ENCODING 77
SWIDTH 1000 0
DWIDTH 8 0
BBX 6 10 0 0
BITMAP
CC
CC
FC
FC
CC
CC
CC
CC
CC
CC
ENDCHAR
STARTCHAR N
ENCODING 78
SWIDTH 1000 0
DWIDTH 8 0
BBX 6 10 0 0
BITMAP
F0
F0
CC
CC
CC
CC
CC
CC
CC
CC
ENDCHAR
STARTCHAR O
ENCODING 79
SWIDTH 1000 0
DWIDTH 8 0
BBX 6 10 0 0
BITMAP
FC
FC
CC
CC
CC
CC
CC
CC
FC
FC
ENDCHAR
STARTCHAR P
ENCODING 80
SWIDTH 1000 0
DWIDTH 8 0
BBX 6 10 0 0
BITMAP
FC
FC
CC
CC
FC
FC
C0
C0
C0
C0
ENDCHAR
STARTCHAR Q
ENCODING 81
SWIDTH 1000 0
DWIDTH 8 0
BBX 6 10 0 0
BITMAP
30
30
CC
CC
CC
CC
FC
FC
3C
3C
ENDCHAR
STARTCHAR R
ENCODING 82
SWIDTH 1000 0
DWIDTH 8 0
BBX 6 10 0 0
BITMAP
F0
F0
CC
CC
FC
FC
F0
F0
CC
CC
ENDCHAR
STARTCHAR S
ENCODING 83
SWIDTH 1000 0
DWIDTH 8 0
BBX 6 10 0 0
BITMAP
3C
3C
C0
C0
30
30
0C
0C
F0
F0
ENDCHAR
STARTCHAR T
ENCODING 84
SWIDTH 1000 0
DWIDTH 8 0
BBX 6 10 0 0
BITMAP
FC
FC
30
30
30
30
30
30
30
30
ENDCHAR
STARTCHAR U
ENCODING 85
SWIDTH 1000 0
DWIDTH 8 0
BBX 6 10 0 0
BITMAP
CC
CC
CC
CC
CC
CC
CC
CC
3C
3C
ENDCHAR
STARTCHAR V
ENCODING 86
SWIDTH 1000 0
DWIDTH 8 0
BBX 6 10 0 0
BITMAP
CC
CC
CC
CC
CC
CC
CC
CC
30
30
ENDCHAR
STARTCHAR W
ENCODING 87
SWIDTH 1000 0
DWIDTH 8 0
BBX 6 10 0 0
BITMAP
CC
CC
CC
CC
CC
CC
FC
FC
CC
CC
ENDCHAR
STARTCHAR X
ENCODING 88
SWIDTH 1000 0
DWIDTH 8 0
BBX 6 10 0 0
BITMAP
CC
CC
CC
CC
30
30
CC
CC
CC
CC
ENDCHAR
STARTCHAR Y
ENCODING 89
SWIDTH 1000 0
DWIDTH 8 0
BBX 6 10 0 0
BITMAP
CC
CC
CC
CC
30
30
30
30
30
30
ENDCHAR
STARTCHAR Z
ENCODING 90
SWIDTH 1000 0
DWIDTH 8 0
BBX 6 10 0 0
BITMAP
FC
FC
0C
0C
30
30
C0
C0
FC
FC
ENDCHAR
STARTCHAR bracketleft
ENCODING 91
SWIDTH 1000 0
DWIDTH 8 0
BBX 6 10 0 0
BITMAP
FC
FC
C0
C0
C0
C0
C0
C0
FC
FC
ENDCHAR
STARTCHAR backslash
ENCODING 92
SWIDTH 1000 0
DWIDTH 8 0
BBX 6 6 0 2
BITMAP
C0
C0
30
30
0C
0C
ENDCHAR
STARTCHAR bracketright
ENCODING 93
SWIDTH 1000 0
DWIDTH 8 0
BBX 6 10 0 0
BITMAP
FC
FC
0C
0C
0C
0C
0C
0C
FC
FC
ENDCHAR
STARTCHAR asciicircum
ENCODING 94
SWIDTH 1000 0
DWIDTH 8 0
BBX 6 4 0 6
BITMAP
30
30
CC
CC
ENDCHAR
STARTCHAR underscore
ENCODING 95
SWIDTH 1000 0
DWIDTH 8 0
BBX 6 2 0 0
BITMAP
FC
FC
ENDCHAR
STARTCHAR grave
ENCODING 96
SWIDTH 1000 0
DWIDTH 8 0
BBX 4 4 0 6
BITMAP
C0
C0
30
30
ENDCHAR
STARTCHAR a
ENCODING 97
SWIDTH 1000 0
DWIDTH 8 0
BBX 6 8 0 0
BITMAP
F0
F0
3C
3C
CC
CC
FC
FC
ENDCHAR
STARTCHAR b
ENCODING 98
SWIDTH 1000 0
DWIDTH 8 0
BBX 6 10 0 0
BITMAP
C0
C0
F0
F0
CC
CC
CC
CC
F0
F0
ENDCHAR
STARTCHAR c
ENCODING 99
SWIDTH 1000 0
DWIDTH 8 0
BBX 6 8 0 0
BITMAP
3C
3C
C0
C0
C0
C0
3C
3C
ENDCHAR
STARTCHAR d
ENCODING 100
SWIDTH 1000 0
DWIDTH 8 0
BBX 6 10 0 0
BITMAP
0C
0C
3C
3C
CC
CC
CC
CC
3C
3C
ENDCHAR
STARTCHAR e
ENCODING 101
SWIDTH 1000 0
DWIDTH 8 0
BBX 6 8 0 0
BITMAP
3C
3C
CC
CC
F0
F0
3C
3C
ENDCHAR
STARTCHAR f
ENCODING 102
SWIDTH 1000 0
DWIDTH 8 0
BBX 6 10 0 0
BITMAP
0C
0C
30
30
FC
FC
30
30
30
30
ENDCHAR
STARTCHAR g
ENCODING 103
SWIDTH 1000 0
DWIDTH 8 0
BBX 6 10 0 -2
BITMAP
3C
3C
CC
CC
FC
FC
0C
0C
30
30
ENDCHAR
STARTCHAR h
ENCODING 104
SWIDTH 1000 0
DWIDTH 8 0
BBX 6 10 0 0
BITMAP
C0
C0
F0
F0
CC
CC
CC
CC
CC
CC
ENDCHAR
STARTCHAR i
ENCODING 105
SWIDTH 1000 0
DWIDTH 8 0
BBX 2 10 2 0
BITMAP
C0
C0
00
00
C0
C0
C0
C0
C0
C0
ENDCHAR
STARTCHAR j
ENCODING 106
SWIDTH 1000 0
DWIDTH 8 0
BBX 6 12 0 -2
BITMAP
0C
0C
00
00
0C
0C
0C
0C
CC
CC
30
30
ENDCHAR
STARTCHAR k
ENCODING 107
SWIDTH 1000 0
DWIDTH 8 0
BBX 6 10 0 0
BITMAP
C0
C0
CC
CC
F0
F0
F0
F0
CC
CC
ENDCHAR
STARTCHAR l
ENCODING 108
SWIDTH 1000 0
DWIDTH 8 0
BBX 6 10 0 0
BITMAP
F0
F0
30
30
30
30
30
30
FC
FC
ENDCHAR
STARTCHAR m
ENCODING 109
SWIDTH 1000 0
DWIDTH 8 0
BBX 6 8 0 0
BITMAP
FC
FC
FC
FC
FC
FC
CC
CC
ENDCHAR
STARTCHAR n
ENCODING 110
SWIDTH 1000 0
DWIDTH 8 0
BBX 6 8 0 0
BITMAP
F0
F0
CC
CC
CC
CC
CC
CC
ENDCHAR
STARTCHAR o
ENCODING 111
SWIDTH 1000 0
DWIDTH 8 0
BBX 6 8 0 0
BITMAP
30
30
CC
CC
CC
CC
30
30
ENDCHAR
STARTCHAR p
ENCODING 112
SWIDTH 1000 0
DWIDTH 8 0
BBX 6 10 0 -2
BITMAP
F0
F0
CC
CC
CC
CC
F0
F0
C0
C0
ENDCHAR
STARTCHAR q
ENCODING 113
SWIDTH 1000 0
DWIDTH 8 0
BBX 6 10 0 -2
BITMAP
3C
3C
CC
CC
CC
CC
3C
3C
0C
0C
ENDCHAR
STARTCHAR r
ENCODING 114
SWIDTH 1000 0
DWIDTH 8 0
BBX 6 8 0 0
BITMAP
3C
3C
C0
C0
C0
C0
C0
C0
ENDCHAR
STARTCHAR s
ENCODING 115
SWIDTH 1000 0
DWIDTH 8 0
BBX 6 8 0 0
BITMAP
3C
3C
F0
F0
3C
3C
F0
F0
ENDCHAR
STARTCHAR t
ENCODING 116
SWIDTH 1000 0
DWIDTH 8 0
BBX 6 10 0 0
BITMAP
30
30
FC
FC
30
30
30
30
3C
3C
ENDCHAR
STARTCHAR u
ENCODING 117
SWIDTH 1000 0
DWIDTH 8 0
BBX 6 8 0 0
BITMAP
CC
CC
CC
CC
CC
CC
3C
3C
ENDCHAR
STARTCHAR v
ENCODING 118
SWIDTH 1000 0
DWIDTH 8 0
BBX 6 8 0 0
BITMAP
CC
CC
CC
CC
FC
FC
30
30
ENDCHAR
STARTCHAR w
ENCODING 119
SWIDTH 1000 0
DWIDTH 8 0
BBX 6 8 0 0
BITMAP
CC
CC
FC
FC
FC
FC
FC
FC
ENDCHAR
STARTCHAR x
ENCODING 120
SWIDTH 1000 0
DWIDTH 8 0
BBX 6 8 0 0
BITMAP
CC
CC
30
30
30
30
CC
CC
ENDCHAR
STARTCHAR y
ENCODING 121
SWIDTH 1000 0
DWIDTH 8 0
BBX 6 10 0 -2
BITMAP
CC
CC
CC
CC
3C
3C
0C
0C
30
30
ENDCHAR
STARTCHAR z
ENCODING 122
SWIDTH 1000 0
DWIDTH 8 0
BBX 6 8 0 0
BITMAP
FC
FC
3C
3C
F0
F0
FC
FC
ENDCHAR
STARTCHAR braceleft
ENCODING 123
SWIDTH 1000 0
DWIDTH 8 0
BBX 6 10 0 0
BITMAP
3C
3C
30
30
C0
C0
30
30
3C
3C
ENDCHAR
STARTCHAR bar
ENCODING 124
SWIDTH 1000 0
DWIDTH 8 0
BBX 2 10 2 0
BITMAP
C0
C0
C0
C0
00
00
C0
C0
C0
C0
ENDCHAR
STARTCHAR braceright
ENCODING 125
SWIDTH 1000 0
DWIDTH 8 0
BBX 6 10 0 0
BITMAP
F0
F0
30
30
0C
0C
30
30
F0
F0
ENDCHAR
STARTCHAR asciitilde
ENCODING 126
SWIDTH 1000 0
DWIDTH 8 0
BBX 6 4 0 6
BITMAP
3C
3C
F0
F0
ENDCHAR
STARTCHAR exclamdown
ENCODING 161
SWIDTH 1000 0
DWIDTH 8 0
BBX 2 10 2 0
BITMAP
C0
C0
00
00
C0
C0
C0
C0
C0
C0
ENDCHAR
STARTCHAR cent
ENCODING 162
SWIDTH 1000 0
DWIDTH 8 0
BBX 6 10 0 0
BITMAP
30
30
FC
FC
C0
C0
FC
FC
30
30
ENDCHAR
STARTCHAR sterling
ENCODING 163
SWIDTH 1000 0
DWIDTH 8 0
BBX 6 10 0 0
BITMAP
3C
3C
30
30
FC
FC
30
30
FC
FC
ENDCHAR
STARTCHAR currency
ENCODING 164
SWIDTH 1000 0
DWIDTH 8 0
BBX 6 10 0 0
BITMAP
CC
CC
30
30
FC
FC
30
30
CC
CC
ENDCHAR
STARTCHAR yen
ENCODING 165
SWIDTH 1000 0
DWIDTH 8 0
BBX 6 10 0 0
BITMAP
CC
CC
CC
CC
30
30
FC
FC
30
30
ENDCHAR
STARTCHAR brokenbar
ENCODING 166
SWIDTH 1000 0
DWIDTH 8 0
BBX 2 10 2 0
BITMAP
C0
C0
C0
C0
00
00
C0
C0
C0
C0
ENDCHAR
STARTCHAR section
ENCODING 167
SWIDTH 1000 0
DWIDTH 8 0
BBX 6 10 0 0
BITMAP
3C
3C
30
30
CC
CC
30
30
F0
F0
ENDCHAR
STARTCHAR dieresis
ENCODING 168
SWIDTH 1000 0
DWIDTH 8 0
BBX 6 2 0 8
BITMAP
CC
CC
ENDCHAR
STARTCHAR copyright
ENCODING 169
SWIDTH 1000 0
DWIDTH 8 0
BBX 6 6 0 4
BITMAP
3C
3C
C0
C0
3C
3C
ENDCHAR
STARTCHAR ordfeminine
ENCODING 170
SWIDTH 1000 0
DWIDTH 8 0
BBX 6 10 0 0
BITMAP
3C
3C
CC
CC
FC
FC
00
00
FC
FC
ENDCHAR
STARTCHAR guillemotleft
ENCODING 171
SWIDTH 1000 0
DWIDTH 8 0
BBX 4 6 0 4
BITMAP
30
30
C0
C0
30
30
ENDCHAR
STARTCHAR logicalnot
ENCODING 172
SWIDTH 1000 0
DWIDTH 8 0
BBX 6 4 0 4
BITMAP
FC
FC
0C
0C
ENDCHAR
STARTCHAR uni00AD
ENCODING 173
SWIDTH 1000 0
DWIDTH 8 0
BBX 4 2 0 4
BITMAP
F0
F0
ENDCHAR
STARTCHAR registered
ENCODING 174
SWIDTH 1000 0
DWIDTH 8 0
BBX 6 6 0 4
BITMAP
F0
F0
F0
F0
CC
CC
ENDCHAR
STARTCHAR macron
ENCODING 175
SWIDTH 1000 0
DWIDTH 8 0
BBX 6 2 0 8
BITMAP
FC
FC
ENDCHAR
STARTCHAR degree
ENCODING 176
SWIDTH 1000 0
DWIDTH 8 0
BBX 6 6 0 4
BITMAP
30
30
CC
CC
30
30
ENDCHAR
STARTCHAR plusminus
ENCODING 177
SWIDTH 1000 0
DWIDTH 8 0
BBX 6 10 0 0
BITMAP
30
30
FC
FC
30
30
00
00
FC
FC
ENDCHAR
STARTCHAR uni00B2
ENCODING 178
SWIDTH 1000 0
DWIDTH 8 0
BBX 6 6 0 4
BITMAP
F0
F0
30
30
3C
3C
ENDCHAR
STARTCHAR uni00B3
ENCODING 179
SWIDTH 1000 0
DWIDTH 8 0
BBX 6 6 0 4
BITMAP
FC
FC
3C
3C
FC
FC
ENDCHAR
STARTCHAR acute
ENCODING 180
SWIDTH 1000 0
DWIDTH 8 0
BBX 4 4 2 6
BITMAP
30
30
C0
C0
ENDCHAR
STARTCHAR mu
ENCODING 181
SWIDTH 1000 0
DWIDTH 8 0
BBX 6 10 0 0
BITMAP
CC
CC
CC
CC
CC
CC
F0
F0
C0
C0
ENDCHAR
STARTCHAR paragraph
ENCODING 182
SWIDTH 1000 0
DWIDTH 8 0
BBX 6 10 0 0
BITMAP
3C
3C
CC
CC
3C
3C
3C
3C
3C
3C
ENDCHAR
STARTCHAR periodcentered
ENCODING 183
SWIDTH 1000 0
DWIDTH 8 0
BBX 6 6 0 2
BITMAP
FC
FC
FC
FC
FC
FC
ENDCHAR
STARTCHAR cedilla
ENCODING 184
SWIDTH 1000 0
DWIDTH 8 0
BBX 6 6 0 0
BITMAP
30
30
0C
0C
F0
F0
ENDCHAR
STARTCHAR uni00B9
ENCODING 185
SWIDTH 1000 0
DWIDTH 8 0
BBX 2 6 2 4
BITMAP
C0
C0
C0
C0
C0
C0
ENDCHAR
STARTCHAR ordmasculine
ENCODING 186
SWIDTH 1000 0
DWIDTH 8 0
BBX 6 10 0 0
BITMAP
30
30
CC
CC
30
30
00
00
FC
FC
ENDCHAR
STARTCHAR guillemotright
ENCODING 187
SWIDTH 1000 0
DWIDTH 8 0
BBX 4 6 2 4
BITMAP
C0
C0
30
30
C0
C0
ENDCHAR
STARTCHAR onequarter
ENCODING 188
SWIDTH 1000 0
DWIDTH 8 0
BBX 6 10 0 0
BITMAP
C0
C0
C0
C0
00
00
3C
3C
0C
0C
ENDCHAR
STARTCHAR onehalf
ENCODING 189
SWIDTH 1000 0
DWIDTH 8 0
BBX 6 10 0 0
BITMAP
C0
C0
C0
C0
00
00
F0
F0
3C
3C
ENDCHAR
STARTCHAR threequarters
ENCODING 190
SWIDTH 1000 0
DWIDTH 8 0
BBX 6 10 0 0
BITMAP
F0
F0
F0
F0
00
00
3C
3C
0C
0C
ENDCHAR
STARTCHAR questiondown
ENCODING 191
SWIDTH 1000 0
DWIDTH 8 0
BBX 6 10 0 0
BITMAP
30
30
00
00
30
30
C0
C0
FC
FC
ENDCHAR
STARTCHAR Agrave
ENCODING 192
SWIDTH 1000 0
DWIDTH 8 0
BBX 6 10 0 0
BITMAP
30
30
0C
0C
30
30
FC
FC
CC
CC
ENDCHAR
STARTCHAR Aacute
ENCODING 193
SWIDTH 1000 0
DWIDTH 8 0
BBX 6 10 0 0
BITMAP
30
30
C0
C0
30
30
FC
FC
CC
CC
ENDCHAR
STARTCHAR Acircumflex
ENCODING 194
SWIDTH 1000 0
DWIDTH 8 0
BBX 6 10 0 0
BITMAP
FC
FC
00
00
30
30
FC
FC
CC
CC
ENDCHAR
STARTCHAR Atilde
ENCODING 195
SWIDTH 1000 0
DWIDTH 8 0
BBX 6 10 0 0
BITMAP
3C
3C
F0
F0
30
30
FC
FC
CC
CC
ENDCHAR
STARTCHAR Adieresis
ENCODING 196
SWIDTH 1000 0
DWIDTH 8 0
BBX 6 10 0 0
BITMAP
CC
CC
30
30
CC
CC
FC
FC
CC
CC
ENDCHAR
STARTCHAR Aring
ENCODING 197
SWIDTH 1000 0
DWIDTH 8 0
BBX 6 10 0 0
BITMAP
F0
F0
F0
F0
CC
CC
FC
FC
CC
CC
ENDCHAR
STARTCHAR AE
ENCODING 198
SWIDTH 1000 0
DWIDTH 8 0
BBX 6 10 0 0
BITMAP
3C
3C
F0
F0
FC
FC
F0
F0
FC
FC
ENDCHAR
STARTCHAR Ccedilla
ENCODING 199
SWIDTH 1000 0
DWIDTH 8 0
BBX 6 12 0 -2
BITMAP
3C
3C
C0
C0
C0
C0
3C
3C
0C
0C
30
30
ENDCHAR
STARTCHAR Egrave
ENCODING 200
SWIDTH 1000 0
DWIDTH 8 0
BBX 6 10 0 0
BITMAP
30
30
0C
0C
FC
FC
F0
F0
FC
FC
ENDCHAR
STARTCHAR Eacute
ENCODING 201
SWIDTH 1000 0
DWIDTH 8 0
BBX 6 10 0 0
BITMAP
30
30
C0
C0
FC
FC
F0
F0
FC
FC
ENDCHAR
STARTCHAR Ecircumflex
ENCODING 202
SWIDTH 1000 0
DWIDTH 8 0
BBX 6 10 0 0
BITMAP
FC
FC
00
00
FC
FC
F0
F0
FC
FC
ENDCHAR
STARTCHAR Edieresis
ENCODING 203
SWIDTH 1000 0
DWIDTH 8 0
BBX 6 10 0 0
BITMAP
CC
CC
00
00
FC
FC
F0
F0
FC
FC
ENDCHAR
STARTCHAR Igrave
ENCODING 204
SWIDTH 1000 0
DWIDTH 8 0
BBX 6 10 0 0
BITMAP
30
30
0C
0C
FC
FC
30
30
FC
FC
ENDCHAR
STARTCHAR Iacute
ENCODING 205
SWIDTH 1000 0
DWIDTH 8 0
BBX 6 10 0 0
BITMAP
30
30
C0
C0
FC
FC
30
30
FC
FC
ENDCHAR
STARTCHAR Icircumflex
ENCODING 206
SWIDTH 1000 0
DWIDTH 8 0
BBX 6 10 0 0
BITMAP
FC
FC
00
00
FC
FC
30
30
FC
FC
ENDCHAR
STARTCHAR Idieresis
ENCODING 207
SWIDTH 1000 0
DWIDTH 8 0
BBX 6 10 0 0
BITMAP
CC
CC
00
00
FC
FC
30
30
FC
FC
ENDCHAR
STARTCHAR Eth
ENCODING 208
SWIDTH 1000 0
DWIDTH 8 0
BBX 6 10 0 0
BITMAP
F0
F0
CC
CC
FC
FC
CC
CC
F0
F0
ENDCHAR
STARTCHAR Ntilde
ENCODING 209
SWIDTH 1000 0
DWIDTH 8 0
BBX 6 10 0 0
BITMAP
F0
F0
3C
3C
CC
CC
FC
FC
CC
CC
ENDCHAR
STARTCHAR Ograve
ENCODING 210
SWIDTH 1000 0
DWIDTH 8 0
BBX 6 10 0 0
BITMAP
30
30
0C
0C
FC
FC
CC
CC
FC
FC
ENDCHAR
STARTCHAR Oacute
ENCODING 211
SWIDTH 1000 0
DWIDTH 8 0
BBX 6 10 0 0
BITMAP
30
30
C0
C0
FC
FC
CC
CC
FC
FC
ENDCHAR
STARTCHAR Ocircumflex
ENCODING 212
SWIDTH 1000 0
DWIDTH 8 0
BBX 6 10 0 0
BITMAP
FC
FC
00
00
FC
FC
CC
CC
FC
FC
ENDCHAR
STARTCHAR Otilde
ENCODING 213
SWIDTH 1000 0
DWIDTH 8 0
BBX 6 10 0 0
BITMAP
F0
F0
3C
3C
FC
FC
CC
CC
FC
FC
ENDCHAR
STARTCHAR Odieresis
ENCODING 214
SWIDTH 1000 0
DWIDTH 8 0
BBX 6 10 0 0
BITMAP
CC
CC
00
00
FC
FC
CC
CC
FC
FC
ENDCHAR
STARTCHAR multiply
ENCODING 215
SWIDTH 1000 0
DWIDTH 8 0
BBX 6 6 0 2
BITMAP
CC
CC
30
30
CC
CC
ENDCHAR
STARTCHAR Oslash
ENCODING 216
SWIDTH 1000 0
DWIDTH 8 0
BBX 6 10 0 0
BITMAP
3C
3C
CC
CC
FC
FC
CC
CC
F0
F0
ENDCHAR
STARTCHAR Ugrave
ENCODING 217
SWIDTH 1000 0
DWIDTH 8 0
BBX 6 10 0 0
BITMAP
C0
C0
30
30
CC
CC
CC
CC
FC
FC
ENDCHAR
STARTCHAR Uacute
ENCODING 218
SWIDTH 1000 0
DWIDTH 8 0
BBX 6 10 0 0
BITMAP
0C
0C
30
30
CC
CC
CC
CC
FC
FC
ENDCHAR
STARTCHAR Ucircumflex
ENCODING 219
SWIDTH 1000 0
DWIDTH 8 0
BBX 6 10 0 0
BITMAP
FC
FC
00
00
CC
CC
CC
CC
FC
FC
ENDCHAR
STARTCHAR Udieresis
ENCODING 220
SWIDTH 1000 0
DWIDTH 8 0
BBX 6 10 0 0
BITMAP
CC
CC
00
00
CC
CC
CC
CC
FC
FC
ENDCHAR
STARTCHAR Yacute
ENCODING 221
SWIDTH 1000 0
DWIDTH 8 0
BBX 6 10 0 0
BITMAP
0C
0C
30
30
CC
CC
FC
FC
30
30
ENDCHAR
STARTCHAR Thorn
ENCODING 222
SWIDTH 1000 0
DWIDTH 8 0
BBX 6 10 0 0
BITMAP
C0
C0
FC
FC
CC
CC
FC
FC
C0
C0
ENDCHAR
STARTCHAR germandbls
ENCODING 223
SWIDTH 1000 0
DWIDTH 8 0
BBX 6 12 0 -2
BITMAP
3C
3C
CC
CC
F0
F0
CC
CC
F0
F0
C0
C0
ENDCHAR
STARTCHAR agrave
ENCODING 224
SWIDTH 1000 0
DWIDTH 8 0
BBX 6 10 0 0
BITMAP
30
30
0C
0C
3C
3C
CC
CC
FC
FC
ENDCHAR
STARTCHAR aacute
ENCODING 225
SWIDTH 1000 0
DWIDTH 8 0
BBX 6 10 0 0
BITMAP
30
30
C0
C0
3C
3C
CC
CC
FC
FC
ENDCHAR
STARTCHAR acircumflex
ENCODING 226
SWIDTH 1000 0
DWIDTH 8 0
BBX 6 10 0 0
BITMAP
FC
FC
00
00
3C
3C
CC
CC
FC
FC
ENDCHAR
STARTCHAR atilde
ENCODING 227
SWIDTH 1000 0
DWIDTH 8 0
BBX 6 10 0 0
BITMAP
3C
3C
F0
F0
3C
3C
CC
CC
FC
FC
ENDCHAR
STARTCHAR adieresis
ENCODING 228
SWIDTH 1000 0
DWIDTH 8 0
BBX 6 10 0 0
BITMAP
CC
CC
00
00
3C
3C
CC
CC
FC
FC
ENDCHAR
STARTCHAR aring
ENCODING 229
SWIDTH 1000 0
DWIDTH 8 0
BBX 6 10 0 0
BITMAP
3C
3C
3C
3C
3C
3C
CC
CC
FC
FC
ENDCHAR
STARTCHAR ae
ENCODING 230
SWIDTH 1000 0
DWIDTH 8 0
BBX 6 8 0 0
BITMAP
3C
3C
FC
FC
FC
FC
F0
F0
ENDCHAR
STARTCHAR ccedilla
ENCODING 231
SWIDTH 1000 0
DWIDTH 8 0
BBX 6 10 0 -2
BITMAP
3C
3C
C0
C0
3C
3C
0C
0C
30
30
ENDCHAR
STARTCHAR egrave
ENCODING 232
SWIDTH 1000 0
DWIDTH 8 0
BBX 6 10 0 0
BITMAP
30
30
0C
0C
3C
3C
FC
FC
3C
3C
ENDCHAR
STARTCHAR eacute
ENCODING 233
SWIDTH 1000 0
DWIDTH 8 0
BBX 6 10 0 0
BITMAP
30
30
C0
C0
3C
3C
FC
FC
3C
3C
ENDCHAR
STARTCHAR ecircumflex
ENCODING 234
SWIDTH 1000 0
DWIDTH 8 0
BBX 6 10 0 0
BITMAP
FC
FC
00
00
3C
3C
FC
FC
3C
3C
ENDCHAR
STARTCHAR edieresis
ENCODING 235
SWIDTH 1000 0
DWIDTH 8 0
BBX 6 10 0 0
BITMAP
CC
CC
00
00
3C
3C
FC
FC
3C
3C
ENDCHAR
STARTCHAR igrave
ENCODING 236
SWIDTH 1000 0
DWIDTH 8 0
BBX 4 10 2 0
BITMAP
C0
C0
30
30
C0
C0
C0
C0
C0
C0
ENDCHAR
STARTCHAR iacute
ENCODING 237
SWIDTH 1000 0
DWIDTH 8 0
BBX 4 10 0 0
BITMAP
30
30
C0
C0
30
30
30
30
30
30
ENDCHAR
STARTCHAR icircumflex
ENCODING 238
SWIDTH 1000 0
DWIDTH 8 0
BBX 6 10 0 0
BITMAP
FC
FC
00
00
30
30
30
30
30
30
ENDCHAR
STARTCHAR idieresis
ENCODING 239
SWIDTH 1000 0
DWIDTH 8 0
BBX 6 10 0 0
BITMAP
CC
CC
00
00
30
30
30
30
30
30
ENDCHAR
STARTCHAR eth
ENCODING 240
SWIDTH 1000 0
DWIDTH 8 0
BBX 6 10 0 0
BITMAP
3C
3C
F0
F0
3C
3C
CC
CC
3C
3C
ENDCHAR
STARTCHAR ntilde
ENCODING 241
SWIDTH 1000 0
DWIDTH 8 0
BBX 6 10 0 0
BITMAP
F0
F0
3C
3C
F0
F0
CC
CC
CC
CC
ENDCHAR
STARTCHAR ograve
ENCODING 242
SWIDTH 1000 0
DWIDTH 8 0
BBX 6 10 0 0
BITMAP
30
30
0C
0C
30
30
CC
CC
30
30
ENDCHAR
STARTCHAR oacute
ENCODING 243
SWIDTH 1000 0
DWIDTH 8 0
BBX 6 10 0 0
BITMAP
30
30
C0
C0
30
30
CC
CC
30
30
ENDCHAR
STARTCHAR ocircumflex
ENCODING 244
SWIDTH 1000 0
DWIDTH 8 0
BBX 6 10 0 0
BITMAP
FC
FC
00
00
30
30
CC
CC
30
30
ENDCHAR
STARTCHAR otilde
ENCODING 245
SWIDTH 1000 0
DWIDTH 8 0
BBX 6 10 0 0
BITMAP
F0
F0
3C
3C
30
30
CC
CC
30
30
ENDCHAR
STARTCHAR odieresis
ENCODING 246
SWIDTH 1000 0
DWIDTH 8 0
BBX 6 10 0 0
BITMAP
CC
CC
00
00
30
30
CC
CC
30
30
ENDCHAR
STARTCHAR divide
ENCODING 247
SWIDTH 1000 0
DWIDTH 8 0
BBX 6 10 0 0
BITMAP
30
30
00
00
FC
FC
00
00
30
30
ENDCHAR
STARTCHAR oslash
ENCODING 248
SWIDTH 1000 0
DWIDTH 8 0
BBX 6 8 0 0
BITMAP
3C
3C
FC
FC
CC
CC
F0
F0
ENDCHAR
STARTCHAR ugrave
ENCODING 249
SWIDTH 1000 0
DWIDTH 8 0
BBX 6 10 0 0
BITMAP
C0
C0
30
30
CC
CC
CC
CC
3C
3C
ENDCHAR
STARTCHAR uacute
ENCODING 250
SWIDTH 1000 0
DWIDTH 8 0
BBX 6 10 0 0
BITMAP
0C
0C
30
30
CC
CC
CC
CC
3C
3C
ENDCHAR
STARTCHAR ucircumflex
ENCODING 251
SWIDTH 1000 0
DWIDTH 8 0
BBX 6 10 0 0
BITMAP
FC
FC
00
00
CC
CC
CC
CC
3C
3C
ENDCHAR
STARTCHAR udieresis
ENCODING 252
SWIDTH 1000 0
DWIDTH 8 0
BBX 6 10 0 0
BITMAP
CC
CC
00
00
CC
CC
CC
CC
3C
3C
ENDCHAR
STARTCHAR yacute
ENCODING 253
SWIDTH 1000 0
DWIDTH 8 0
BBX 6 12 0 -2
BITMAP
0C
0C
30
30
CC
CC
3C
3C
0C
0C
30
30
ENDCHAR
STARTCHAR thorn
ENCODING 254
SWIDTH 1000 0
DWIDTH 8 0
BBX 6 10 0 -2
BITMAP
C0
C0
F0
F0
CC
CC
F0
F0
C0
C0
ENDCHAR
STARTCHAR ydieresis
ENCODING 255
SWIDTH 1000 0
DWIDTH 8 0
BBX 6 12 0 -2
BITMAP
CC
CC
00
00
CC
CC
3C
3C
0C
0C
30
30
ENDCHAR
STARTCHAR gcircumflex
ENCODING 285
SWIDTH 1000 0
DWIDTH 12 0
BBX 1 1 1 0
BITMAP
00
ENDCHAR
STARTCHAR OE
ENCODING 338
SWIDTH 666 0
DWIDTH 8 0
BBX 6 10 0 0
BITMAP
3C
3C
F0
F0
FC
FC
F0
F0
3C
3C
ENDCHAR
STARTCHAR oe
ENCODING 339
SWIDTH 666 0
DWIDTH 8 0
BBX 6 8 0 0
BITMAP
3C
3C
FC
FC
F0
F0
FC
FC
ENDCHAR
STARTCHAR Scaron
ENCODING 352
SWIDTH 666 0
DWIDTH 8 0
BBX 6 10 0 0
BITMAP
CC
CC
3C
3C
F0
F0
3C
3C
F0
F0
ENDCHAR
STARTCHAR scaron
ENCODING 353
SWIDTH 666 0
DWIDTH 8 0
BBX 6 10 0 0
BITMAP
CC
CC
3C
3C
F0
F0
3C
3C
F0
F0
ENDCHAR
STARTCHAR Ydieresis
ENCODING 376
SWIDTH 666 0
DWIDTH 8 0
BBX 6 10 0 0
BITMAP
CC
CC
00
00
CC
CC
30
30
30
30
ENDCHAR
STARTCHAR Zcaron
ENCODING 381
SWIDTH 666 0
DWIDTH 8 0
BBX 6 10 0 0
BITMAP
CC
CC
FC
FC
3C
3C
F0
F0
FC
FC
ENDCHAR
STARTCHAR zcaron
ENCODING 382
SWIDTH 666 0
DWIDTH 8 0
BBX 6 10 0 0
BITMAP
CC
CC
FC
FC
3C
3C
F0
F0
FC
FC
ENDCHAR
STARTCHAR uni0EA4
ENCODING 3748
SWIDTH 1000 0
DWIDTH 12 0
BBX 1 1 1 0
BITMAP
00
ENDCHAR
STARTCHAR uni13A0
ENCODING 5024
SWIDTH 1000 0
DWIDTH 12 0
BBX 1 1 1 0
BITMAP
00
ENDCHAR
STARTCHAR bullet
ENCODING 8226
SWIDTH 666 0
DWIDTH 8 0
BBX 2 2 2 4
BITMAP
C0
C0
ENDCHAR
STARTCHAR ellipsis
ENCODING 8230
SWIDTH 666 0
DWIDTH 8 0
BBX 6 2 0 0
BITMAP
CC
CC
ENDCHAR
STARTCHAR Euro
ENCODING 8364
SWIDTH 666 0
DWIDTH 8 0
BBX 6 10 0 0
BITMAP
3C
3C
FC
FC
FC
FC
F0
F0
3C
3C
ENDCHAR
ENDFONT
